<?xml version="1.0" encoding="UTF-8" standalone="no"?>
<svg
   width="21.166668mm"
   height="8.8133297mm"
   viewBox="0 0 21.166668 8.8133295"
   version="1.1"
   id="svg1412"
   inkscape:version="1.1.2 (0a00cf5339, 2022-02-04)"
   sodipodi:docname="esup-portail-logo_small.svg"
   xmlns:inkscape="http://www.inkscape.org/namespaces/inkscape"
   xmlns:sodipodi="http://sodipodi.sourceforge.net/DTD/sodipodi-0.dtd"
   xmlns="http://www.w3.org/2000/svg"
   xmlns:svg="http://www.w3.org/2000/svg"
   xmlns:rdf="http://www.w3.org/1999/02/22-rdf-syntax-ns#"
   xmlns:cc="http://creativecommons.org/ns#"
   xmlns:dc="http://purl.org/dc/elements/1.1/">
  <defs
     id="defs1406" />
  <sodipodi:namedview
     id="base"
     pagecolor="#ffffff"
     bordercolor="#666666"
     borderopacity="1.0"
     inkscape:pageopacity="0.0"
     inkscape:pageshadow="2"
     inkscape:zoom="3.6154924"
     inkscape:cx="25.722637"
     inkscape:cy="61.817306"
     inkscape:document-units="mm"
     inkscape:current-layer="layer1"
     inkscape:document-rotation="0"
     showgrid="false"
     fit-margin-top="0"
     fit-margin-left="0"
     fit-margin-right="0"
     fit-margin-bottom="0"
     inkscape:window-width="1918"
     inkscape:window-height="1038"
     inkscape:window-x="1920"
     inkscape:window-y="20"
     inkscape:window-maximized="1"
     inkscape:pagecheckerboard="0" />
  <metadata
     id="metadata1409">
    <rdf:RDF>
      <cc:Work
         rdf:about="">
        <dc:format>image/svg+xml</dc:format>
        <dc:type
           rdf:resource="http://purl.org/dc/dcmitype/StillImage" />
      </cc:Work>
    </rdf:RDF>
  </metadata>
  <g
     inkscape:label="Calque 1"
     inkscape:groupmode="layer"
     id="layer1"
     transform="translate(20.294098,-112.47977)">
    <path
       d="m -9.5972289,118.73394 c -0.1167276,0 -0.209452,0.0196 -0.2783128,0.0581 -0.068931,0.0392 -0.1205066,0.091 -0.1548673,0.15535 -0.0345,0.0644 -0.05689,0.13577 -0.06732,0.21554 -0.01064,0.079 -0.01582,0.15886 -0.01582,0.24004 0,0.0658 0.0061,0.13786 0.01792,0.21554 0.01204,0.0777 0.03667,0.15046 0.07425,0.21764 0.03737,0.0672 0.089645,0.12316 0.1570368,0.16865 0.067322,0.0448 0.1564768,0.0672 0.267116,0.0672 0.1107095,0 0.1997947,-0.0224 0.267186,-0.0672 0.067391,-0.0455 0.118967,-0.10147 0.1548671,-0.16865 0.0359,-0.0672 0.059834,-0.13997 0.07187,-0.21764 0.011827,-0.0777 0.017984,-0.14976 0.017984,-0.21554 0,-0.0658 -0.00616,-0.13787 -0.017984,-0.21554 -0.012037,-0.0777 -0.03597,-0.15046 -0.07187,-0.21764 -0.0359,-0.0679 -0.087476,-0.12387 -0.1548671,-0.16866 -0.067391,-0.0448 -0.1564765,-0.0672 -0.267186,-0.0672 z m -1.0504791,0.67321 c 0,-0.18824 0.01938,-0.3569 0.05836,-0.50526 0.03884,-0.14766 0.100983,-0.27362 0.186359,-0.3765 0.08517,-0.10356 0.193636,-0.18264 0.32534,-0.23792 0.131703,-0.056 0.2919587,-0.0833 0.4804164,-0.0833 0.1976253,0.006 0.3740464,0.0511 0.5298232,0.13436 0.065782,0.0364 0.1310037,0.0826 0.1953158,0.13926 0.064312,0.0567 0.1212764,0.12806 0.1706827,0.21344 0.049266,0.0854 0.089645,0.18615 0.1210663,0.30302 0.031491,0.11687 0.047307,0.25263 0.047307,0.40868 0,0.15536 -0.014416,0.29183 -0.042758,0.40869 -0.028412,0.11617 -0.065782,0.21694 -0.1121088,0.30091 -0.046537,0.0833 -0.098813,0.15327 -0.1572465,0.20855 -0.058364,0.0553 -0.118897,0.10077 -0.1818094,0.13646 -0.1437403,0.0812 -0.3083346,0.12317 -0.4939232,0.12597 -0.092864,-0.006 -0.1825096,-0.0252 -0.2692854,-0.0581 -0.07495,-0.0301 -0.1512981,-0.0777 -0.2290471,-0.14346 -0.07782,-0.0665 -0.14213,-0.16236 -0.193006,-0.28762 l 0.09867,0.13017 v 1.0686 h -0.534163 v -1.88599"
       style="fill:#ed184e;fill-opacity:1;fill-rule:nonzero;stroke:none;stroke-width:0.00699806"
       id="path14"
       inkscape:connector-curvature="0" />
    <path
       d="m -7.2177485,118.73394 c -0.1106394,0 -0.1997947,0.0224 -0.267116,0.0672 -0.067391,0.0448 -0.1189669,0.10077 -0.154937,0.16865 -0.0359,0.0672 -0.059763,0.13996 -0.0718,0.21764 -0.011896,0.0777 -0.017984,0.14976 -0.017984,0.21554 0,0.0658 0.00609,0.13786 0.017984,0.21554 0.012037,0.0777 0.0359,0.15046 0.0718,0.21764 0.03597,0.0672 0.087546,0.12316 0.154937,0.16865 0.067322,0.0448 0.1564766,0.0672 0.267116,0.0672 0.1107092,0 0.1997947,-0.0224 0.267186,-0.0672 0.067391,-0.0455 0.118897,-0.10147 0.154867,-0.16865 0.0359,-0.0672 0.059834,-0.13996 0.07187,-0.21764 0.011827,-0.0777 0.017984,-0.14976 0.017984,-0.21554 0,-0.0658 -0.00616,-0.13786 -0.017984,-0.21554 -0.012037,-0.0777 -0.03597,-0.15046 -0.07187,-0.21764 -0.03597,-0.0679 -0.087476,-0.12387 -0.154867,-0.16865 -0.067391,-0.0448 -0.1564768,-0.0672 -0.267186,-0.0672 z m -1.0639851,0.66901 c 0,-0.15605 0.014906,-0.29181 0.044928,-0.40868 0.029811,-0.11687 0.069561,-0.21764 0.118967,-0.30302 0.049406,-0.0854 0.1061605,-0.15675 0.1704728,-0.21344 0.064312,-0.0567 0.1295339,-0.10287 0.1953156,-0.13926 0.1555671,-0.0833 0.3338077,-0.12876 0.534302,-0.13436 0.1976251,0.006 0.3740463,0.0511 0.5298232,0.13436 0.065782,0.0364 0.1310037,0.0826 0.1953159,0.13926 0.064312,0.0567 0.1212762,0.12806 0.1706827,0.21344 0.049196,0.0854 0.089645,0.18615 0.1210663,0.30302 0.031491,0.11687 0.047307,0.25263 0.047307,0.40868 0,0.15536 -0.015816,0.29183 -0.047307,0.40869 -0.031421,0.11617 -0.07187,0.21694 -0.1210663,0.30091 -0.049406,0.0833 -0.1063707,0.15327 -0.1706827,0.20855 -0.064312,0.0553 -0.1295341,0.10077 -0.1953159,0.13646 -0.1557769,0.0812 -0.3321981,0.12317 -0.5298232,0.12597 -0.2004943,-0.003 -0.3787349,-0.0448 -0.534302,-0.12597 -0.065782,-0.0357 -0.1310036,-0.0812 -0.1953156,-0.13646 -0.064312,-0.0553 -0.1210666,-0.12527 -0.1704728,-0.20855 -0.049406,-0.084 -0.089155,-0.18474 -0.118967,-0.30091 -0.030022,-0.11686 -0.044928,-0.25333 -0.044928,-0.40869"
       style="fill:#ed184e;fill-opacity:1;fill-rule:nonzero;stroke:none;stroke-width:0.00699806"
       id="path16"
       inkscape:connector-curvature="0" />
    <path
       d="m -5.8842681,118.92708 c 0,-0.15605 0.032891,-0.27781 0.098603,-0.36599 0.065992,-0.0882 0.1378618,-0.15536 0.2156102,-0.20014 0.092724,-0.0539 0.1974853,-0.0868 0.3142829,-0.0987 h 0.6286357 v 0.54305 h -0.422053 c -0.060043,0 -0.1085399,0.0105 -0.1459094,0.0315 -0.03751,0.021 -0.066622,0.0434 -0.087686,0.0679 -0.023863,0.0294 -0.040378,0.0623 -0.049406,0.0987 v 1.53538 h -0.552077 v -1.61166"
       style="fill:#ed184e;fill-opacity:1;fill-rule:nonzero;stroke:none;stroke-width:0.00699806"
       id="path18"
       inkscape:connector-curvature="0" />
    <path
       d="m -3.8145219,118.79692 v 1.00072 c 0.00896,0.0364 0.025473,0.0693 0.049406,0.0987 0.020994,0.0245 0.050106,0.0469 0.087686,0.0679 0.03737,0.021 0.085866,0.0315 0.1458396,0.0315 h 0.3412252 v 0.54305 h -0.547808 c -0.1167976,-0.0119 -0.2215587,-0.0448 -0.314213,-0.0987 -0.078028,-0.0448 -0.1489887,-0.11127 -0.2133008,-0.20015 -0.064522,-0.0882 -0.096433,-0.20994 -0.096433,-0.366 v -2.22188 h 0.5475982 v 0.61024 h 0.5163169 v 0.53464 h -0.5163169"
       style="fill:#ed184e;fill-opacity:1;fill-rule:nonzero;stroke:none;stroke-width:0.00699806"
       id="path20"
       inkscape:connector-curvature="0" />
    <path
       d="m -1.8750795,118.73394 c -0.1106394,0 -0.1997947,0.0224 -0.267116,0.0672 -0.067391,0.0448 -0.118967,0.10077 -0.154867,0.16865 -0.03597,0.0672 -0.059834,0.13996 -0.07187,0.21764 -0.011896,0.0777 -0.017984,0.14976 -0.017984,0.21554 0,0.0658 0.00609,0.13786 0.017984,0.21554 0.012037,0.0777 0.0359,0.15046 0.07187,0.21764 0.0359,0.0672 0.087476,0.12316 0.154867,0.16865 0.067322,0.0448 0.1564766,0.0672 0.267116,0.0672 0.1107094,0 0.1997947,-0.0224 0.2671859,-0.0672 0.067391,-0.0455 0.1196669,-0.10147 0.1571765,-0.16865 0.03737,-0.0672 0.062003,-0.13996 0.074039,-0.21764 0.011826,-0.0777 0.017984,-0.14976 0.017984,-0.21554 0,-0.0812 -0.00525,-0.16095 -0.015816,-0.24003 -0.010426,-0.0798 -0.032891,-0.15116 -0.067182,-0.21555 -0.0345,-0.0644 -0.086076,-0.11616 -0.1550771,-0.15535 -0.068791,-0.0385 -0.1615152,-0.0581 -0.2783128,-0.0581 z m 1.05068874,1.8048 H -1.3586925 v -0.31421 l 0.098812,-0.13017 c -0.051016,0.12527 -0.115328,0.22115 -0.1931465,0.28763 -0.077818,0.0658 -0.1541671,0.11336 -0.2289065,0.14345 -0.086916,0.0329 -0.176631,0.0525 -0.2694953,0.0581 -0.1855885,-0.003 -0.3501831,-0.0448 -0.4939231,-0.12597 -0.062702,-0.0357 -0.1233757,-0.0812 -0.1818097,-0.13646 -0.058154,-0.0553 -0.1106393,-0.12526 -0.1570364,-0.20854 -0.046467,-0.084 -0.083837,-0.18475 -0.1122489,-0.30092 -0.028412,-0.11686 -0.042618,-0.25332 -0.042618,-0.40868 0,-0.15606 0.014977,-0.29182 0.044928,-0.40869 0.029812,-0.11687 0.069561,-0.21764 0.1189669,-0.30302 0.049406,-0.0854 0.1061606,-0.15675 0.1704728,-0.21344 0.064312,-0.0567 0.129534,-0.10287 0.195316,-0.13926 0.1555668,-0.0833 0.3338074,-0.12876 0.5343017,-0.13436 0.1886678,0 0.3487134,0.0273 0.480417,0.0833 0.1317035,0.0553 0.2402433,0.13436 0.3255496,0.23793 0.0853764,0.10287 0.14737916,0.22884 0.18635836,0.37649 0.0387696,0.14836 0.058364,0.31702 0.058364,0.50527 v 1.13158"
       style="fill:#ed184e;fill-opacity:1;fill-rule:nonzero;stroke:none;stroke-width:0.00699806"
       id="path22"
       inkscape:connector-curvature="0" />
    <path
       d="m 0.01502658,118.26227 v 2.27647 h -0.54766815 v -2.27647 z m -0.54766815,-0.50736 c 0,-0.0658 7.7368e-4,-0.11476 0.002168,-0.14766 0.001472,-0.0329 0.0104264,-0.0574 0.0269424,-0.0721 0.0163752,-0.0147 0.0433184,-0.0231 0.0808975,-0.0245 0.0373696,-0.002 0.0919546,-0.003 0.16382464,-0.003 0.0718704,0 0.12645503,0.002 0.16382463,0.003 0.0373696,0.002 0.0643824,0.01 0.08089752,0.0245 0.0163064,0.0147 0.0253328,0.0392 0.0269424,0.0721 0.001408,0.0329 0.002168,0.0819 0.002168,0.14766 0,0.0658 -7.736e-4,0.11547 -0.002168,0.14836 -0.001608,0.0329 -0.0106368,0.0566 -0.0269424,0.0721 -0.016516,0.0147 -0.043528,0.0231 -0.08089752,0.0245 -0.0373696,0.002 -0.09195455,0.002 -0.16382463,0.002 -0.0718704,0 -0.12645488,-7.9e-4 -0.16382464,-0.002 -0.0375792,-0.002 -0.0645224,-0.01 -0.0808975,-0.0245 -0.0165144,-0.0154 -0.0254728,-0.0392 -0.0269424,-0.0721 -0.001408,-0.0329 -0.002168,-0.0826 -0.002168,-0.14836"
       style="fill:#ed184e;fill-opacity:1;fill-rule:nonzero;stroke:none;stroke-width:0.00699806"
       id="path24"
       inkscape:connector-curvature="0" />
    <path
       d="m 0.87256889,117.50788 v 3.03086 H 0.32490074 v -3.03086 h 0.54766815"
       style="fill:#ed184e;fill-opacity:1;fill-rule:nonzero;stroke:none;stroke-width:0.00699806"
       id="path26"
       inkscape:connector-curvature="0" />
    <path
       d="m -17.666839,114.35945 v -0.41078 c -0.0084,-0.47867 -0.134384,-0.62983 -0.570776,-0.62983 -0.545632,0 -0.52032,0.41988 -0.52032,0.84747 v 0.19314 z m -2.182352,-0.12596 c -0.05033,-1.11619 0.520481,-1.75372 1.594872,-1.75372 1.519237,0 1.678603,0.78869 1.678603,2.08122 v 0.63823 h -2.182219 v 0.68791 c 0.0083,0.62142 0.243267,0.73899 0.570615,0.73899 0.402991,0 0.520481,-0.29392 0.503784,-0.89015 h 1.091096 c 0.04204,1.05811 -0.394544,1.72922 -1.510791,1.72922 -1.259077,0 -1.771139,-0.59553 -1.74596,-1.98884 v -1.24286"
       style="fill:#3871c1;fill-opacity:1;fill-rule:nonzero;stroke:none;stroke-width:0.00699806"
       id="path28"
       inkscape:connector-curvature="0" />
    <path
       d="m -14.979437,115.76047 v 0.3331 c 0,0.27082 0.08804,0.50946 0.440388,0.50946 0.258018,0 0.371177,-0.23233 0.371177,-0.47167 0,-0.39609 -0.327159,-0.54725 -0.616599,-0.7236 -0.339756,-0.19454 -0.628985,-0.37719 -0.836688,-0.61653 -0.201265,-0.23863 -0.320903,-0.52835 -0.320903,-0.94333 0,-0.88736 0.534904,-1.34014 1.390417,-1.34014 0.962513,0 1.453147,0.64173 1.402831,1.52908 h -1.019058 c -0.0126,-0.27712 0,-0.65432 -0.364879,-0.67951 -0.226597,-0.0189 -0.35865,0.10707 -0.383773,0.31422 -0.03142,0.28341 0.113158,0.42828 0.333457,0.57873 0.415195,0.26453 0.773846,0.42828 1.031654,0.66691 0.257949,0.23934 0.408897,0.55356 0.408897,1.126 0,0.90624 -0.503231,1.4094 -1.421656,1.4094 -1.012969,0 -1.44076,-0.56614 -1.44076,-1.18896 v -0.50316 h 1.025495"
       style="fill:#3871c1;fill-opacity:1;fill-rule:nonzero;stroke:none;stroke-width:0.00699806"
       id="path30"
       inkscape:connector-curvature="0" />
    <path
       d="m -12.65762,112.62114 h 1.107093 v 3.56061 c 0,0.22673 0.06935,0.42128 0.383773,0.42128 0.28944,0 0.377475,-0.25123 0.377475,-0.45277 v -3.52912 h 1.1072337 v 3.41575 c 0,0.79918 -0.3585807,1.4157 -1.4910067,1.4157 -0.93732,0 -1.484568,-0.44648 -1.484568,-1.4157 v -3.41575"
       style="fill:#3871c1;fill-opacity:1;fill-rule:nonzero;stroke:none;stroke-width:0.00699806"
       id="path32"
       inkscape:connector-curvature="0" />
    <path
       d="m -7.944987,114.65337 c 0.2074925,-0.006 0.4466163,0.0189 0.6226875,-0.11966 0.1131587,-0.12597 0.1383517,-0.31492 0.1383517,-0.47797 0,-0.18265 -0.018894,-0.45978 -0.2074926,-0.54725 -0.1069303,-0.0378 -0.2580184,-0.0378 -0.4340896,-0.0378 h -0.119457 z m -1.107303,2.68586 v -4.71809 h 1.3147955 c 0.4277915,0 1.0443906,0.0378 1.3525152,0.38979 0.2580185,0.28971 0.3082645,0.64172 0.3082645,1.02591 0,0.50946 -0.1194569,1.0819 -0.6226874,1.31423 -0.3837736,0.18896 -0.8303897,0.13227 -1.2455848,0.15116 v 1.837 H -9.05229"
       style="fill:#3871c1;fill-opacity:1;fill-rule:nonzero;stroke:none;stroke-width:0.00699806"
       id="path34"
       inkscape:connector-curvature="0" />
    <path
       d="m -16.432745,118.75423 c 1.234899,-0.52625 2.67286,-0.54655 3.57351,-0.14976 0.926963,0.3898 1.116611,0.98464 1.102615,0.96434 0.0076,-0.006 -0.535142,-0.14836 -1.259301,-0.035 -0.728079,0.0938 -1.605005,0.45978 -2.636799,0.88946 -0.215471,0.0889 -0.617565,0.25892 -0.982829,0.31911 -0.366363,0.079 -0.737532,0.077 -1.072592,0.042 -0.677749,-0.0756 -1.211897,-0.32751 -1.592143,-0.58224 -0.763824,-0.52206 -0.990275,-1.0931 -0.993802,-1.0861 -0.003,-0.003 0.550166,0.15256 1.32411,0.20224 0.384368,0.0252 0.817675,0.0112 1.228132,-0.0784 0.205183,-0.0455 0.408428,-0.0945 0.604156,-0.17915 0.206275,-0.0734 0.353157,-0.15886 0.704943,-0.30651"
       style="fill:#3871c1;fill-opacity:1;fill-rule:nonzero;stroke:none;stroke-width:0.00699806"
       id="path36"
       inkscape:connector-curvature="0" />
  </g>
</svg>
